<svg xmlns="http://www.w3.org/2000/svg" width="250" height="250"><g style="display:inline"><circle cx="50.839" cy="50.839" r="50.839" data-name="Ellipse 8" style="display:inline;fill:#dd0031" transform="scale(2.45874)"/></g><path d="M68.209 50A18.169 18.169 0 0 0 50 68.209V181.79A18.169 18.169 0 0 0 68.209 200H181.79A18.169 18.169 0 0 0 200 181.791V68.21A18.169 18.169 0 0 0 181.791 50Zm6.681 8.824h100.22a16.032 16.032 0 0 1 16.066 16.066v100.22a16.032 16.032 0 0 1-16.066 16.066H74.89a16.032 16.032 0 0 1-16.066-16.066V74.89A16.032 16.032 0 0 1 74.89 58.824z" style="opacity:1;fill:#fff;stroke-width:9.16756;stroke-linecap:round;stroke-linejoin:round"/><path d="M67.647 164.706v3.722c0 7.714 6.21 13.925 13.925 13.925h86.856c7.714 0 13.925-6.21 13.925-13.925v-3.722z" style="opacity:1;fill:#fff;stroke-width:7.01048;stroke-linecap:round;stroke-linejoin:round"/></svg>