<?xml version="1.0" encoding="UTF-8" standalone="no"?>
<svg
   xmlns:dc="http://purl.org/dc/elements/1.1/"
   xmlns:cc="http://creativecommons.org/ns#"
   xmlns:rdf="http://www.w3.org/1999/02/22-rdf-syntax-ns#"
   xmlns:svg="http://www.w3.org/2000/svg"
   xmlns="http://www.w3.org/2000/svg"
   version="1.1"
   viewBox="0 0 250 250"
   height="250"
   width="250"
   alt="Rocket Ship"
   id="rocket">
  <metadata
     id="metadata12">
    <rdf:RDF>
      <cc:Work
         rdf:about="">
        <dc:format>image/svg+xml</dc:format>
        <dc:type
           rdf:resource="http://purl.org/dc/dcmitype/StillImage" />
        <dc:title></dc:title>
      </cc:Work>
    </rdf:RDF>
  </metadata>
  <defs
     id="defs10" />
  <g
     id="g4546"
     transform="scale(2.4587423)"
     style="display:inline">
    <circle
       style="display:inline;fill:#dd0031"
       r="50.839001"
       cy="50.839001"
       cx="50.839001"
       data-name="Ellipse 8"
       id="Ellipse_8" />
  </g>
  <path
     id="rect836"
     style="opacity:1;fill:#ffffff;stroke-width:9.16756;stroke-linecap:round;stroke-linejoin:round"
     d="M 68.20887,50 C 58.12112,50 50,58.12112 50,68.20887 V 181.79113 C 50,191.87888 58.12112,200 68.20887,200 H 181.79113 C 191.87888,200 200,191.87888 200,181.79113 V 68.20887 C 200,58.12112 191.87888,50 181.79113,50 Z m 6.68141,8.823529 h 100.21944 c 8.90096,0 16.06675,7.165795 16.06675,16.066751 v 100.21944 c 0,8.90096 -7.16579,16.06675 -16.06675,16.06675 H 74.89028 c -8.900956,0 -16.066751,-7.16579 -16.066751,-16.06675 V 74.89028 c 0,-8.900956 7.165795,-16.066751 16.066751,-16.066751 z" />
  <path
     id="rect836-3-9"
     style="opacity:1;fill:#ffffff;stroke-width:7.01048;stroke-linecap:round;stroke-linejoin:round"
     d="m 67.647059,164.70588 v 3.72243 c 0,7.71416 6.210471,13.92463 13.924632,13.92463 h 86.856619 c 7.71416,0 13.92463,-6.21047 13.92463,-13.92463 v -3.72243 z" />
</svg>
